<svg width="876" height="706" viewBox="0 0 876 706" fill="none" xmlns="http://www.w3.org/2000/svg">
<path fill-rule="evenodd" clip-rule="evenodd" d="M400.338 78.1726L400.126 78.0655L399.891 78.0995L399.999 78.8416C399.891 78.0995 399.89 78.0995 399.89 78.0995H399.889L399.886 78.1005L399.873 78.1025L399.826 78.1095C399.784 78.1155 399.723 78.1255 399.644 78.1375C399.485 78.1625 399.253 78.2005 398.957 78.2516C398.364 78.3526 397.516 78.5066 396.487 78.7176C394.43 79.1387 391.644 79.7887 388.732 80.6998C385.825 81.6109 382.768 82.7911 380.182 84.2812C377.614 85.7614 375.416 87.6026 374.362 89.8799C372.377 94.1694 371.432 101.432 371.943 107.604C372.2 110.694 372.827 113.591 373.924 115.739C375.023 117.89 376.683 119.435 379.017 119.435C381.307 119.435 383.471 117.747 385.437 115.539C387.44 113.291 389.415 110.295 391.306 107.302C391.718 106.649 392.126 105.997 392.53 105.352C393.992 103.012 395.399 100.763 396.748 98.9069C397.607 97.7258 398.424 96.7307 399.195 95.9896C399.976 95.2385 400.652 94.8054 401.222 94.6554C404.27 93.8533 408.528 92.3412 412.002 91.039C413.744 90.3859 415.297 89.7829 416.416 89.3428C416.974 89.1228 417.424 88.9438 417.735 88.8188C417.89 88.7568 418.011 88.7087 418.093 88.6757L418.186 88.6377L418.21 88.6277L418.216 88.6257L418.217 88.6247H418.218C418.218 88.6247 418.218 88.6247 417.936 87.9297L418.218 88.6247L419.745 88.0057L418.275 87.2606L400.338 78.1726ZM399.21 79.7297C399.498 79.6807 399.722 79.6437 399.875 79.6197L416.115 87.8486L415.865 87.9467C414.753 88.3847 413.208 88.9848 411.476 89.6339C408.002 90.936 403.807 92.4242 400.84 93.2053C399.906 93.4503 399.008 94.0884 398.155 94.9075C397.293 95.7365 396.417 96.8117 395.535 98.0248C394.152 99.928 392.707 102.238 391.24 104.584V104.585C390.84 105.224 390.439 105.865 390.038 106.501C388.144 109.499 386.227 112.395 384.317 114.542C382.371 116.727 380.598 117.935 379.017 117.935C377.48 117.935 376.23 116.954 375.26 115.056C374.289 113.155 373.688 110.479 373.439 107.481C372.942 101.475 373.881 94.4924 375.724 90.51C376.584 88.6497 378.462 87.0036 380.931 85.5804C383.385 84.1662 386.327 83.0251 389.18 82.132C392.03 81.2399 394.764 80.6018 396.788 80.1868C397.799 79.9798 398.632 79.8287 399.21 79.7297ZM708.895 210.666C705.988 217.831 702.951 225.314 702.08 232.355C713.009 239.052 719.087 248.841 725.577 259.294L725.58 259.298C726.328 260.504 727.083 261.719 727.851 262.94C732.21 269.864 735.693 276.987 739.203 284.164C741.444 288.744 743.694 293.345 746.189 297.93C758.651 320.836 780.66 391.329 783.951 402.697C786.554 411.679 790.269 420.571 793.926 429.321C794.796 431.404 795.663 433.478 796.51 435.544C797.099 436.977 797.117 438.76 797.134 440.477C797.163 443.296 797.189 445.94 799.737 446.577C802.082 447.163 808.213 444.221 813.388 441.739H813.389C816.416 440.287 819.116 438.991 820.54 438.651C832.281 435.848 845.028 437.27 857.042 438.612L857.39 438.651C858.135 434.267 856.448 423.487 854.879 419.215C854.057 416.98 853.252 414.509 852.421 411.957C850.444 405.888 848.317 399.36 845.475 394.467C842.953 390.125 836.123 376.733 827.985 360.777L827.984 360.776C815.274 335.853 799.372 304.673 791.711 291.953C786.777 283.759 781.75 276.231 776.851 268.892C765.756 252.274 755.31 236.629 748.049 216.438C742.447 200.865 738.134 184.179 734.042 168.132C732.51 162.123 731.285 156.187 730.066 150.272V150.271C728.326 141.835 726.596 133.441 723.993 124.934C723.29 125.404 722.08 125.672 720.831 125.948C719.197 126.309 717.497 126.685 716.777 127.549C715.18 129.47 715.184 129.472 715.604 129.674C715.899 129.816 716.4 130.058 716.694 131.134C717.232 133.098 718.168 134.855 719.115 136.633C720.351 138.955 721.607 141.313 722.02 144.213C722.958 150.788 721.631 157.19 720.303 163.594C719.643 166.782 718.982 169.97 718.6 173.18C717.392 183.354 715.837 191.688 712.538 201.235C711.49 204.267 710.206 207.434 708.895 210.666ZM451.224 284.235C443.736 286.989 436.35 289.705 429.167 292.45C429.167 292.45 449.854 314.273 463.415 321.007C464.723 321.657 466.195 322.427 467.772 323.251C473.874 326.443 481.538 330.45 487.275 331.452C494.515 332.718 521.192 335.611 528.038 332.553C530.985 331.238 538.635 325.266 541.152 323.252C542.492 322.18 543.286 320.099 544.075 318.031C544.753 316.255 545.426 314.488 546.44 313.378C555.432 303.519 565.378 295.654 577.176 289.705L577.764 289.409C582.839 286.852 589.293 283.601 592.901 279.222C597.09 274.139 598.177 266.679 598.588 260.363C599.021 253.691 599.06 246.967 599.099 240.239V240.238C599.158 229.834 599.218 219.418 600.739 209.163C603.007 193.866 607.56 177.456 614.435 163.586C617.973 156.451 622.333 149.716 627.302 143.5C628.514 141.985 629.946 140.744 631.369 139.512H631.37C632.55 138.489 633.723 137.473 634.759 136.311C637.117 133.663 637.104 132.701 637.064 129.485C637.058 129.019 637.051 128.506 637.051 127.934C626.346 135.398 614.412 138.535 601.968 141.807C601.052 142.048 600.133 142.29 599.212 142.533C597.117 143.089 595 143.612 592.879 144.135C581.165 147.029 569.334 149.953 560.351 158.497C554.672 163.899 551.747 165.541 544.066 166.316C541.561 166.568 539.047 166.779 536.532 166.991H536.531C531.146 167.443 525.754 167.895 520.416 168.754C506.351 171.016 492.844 175.379 479.333 179.742L478.48 180.017C450.604 189.018 426.237 204.069 402.07 219.966C392.935 225.974 384.674 233.094 376.42 240.208H376.419C374.887 241.529 373.356 242.849 371.818 244.162C370.321 245.441 368.707 246.791 367.018 248.204L367.017 248.205C355.29 258.014 339.918 270.873 334.748 283.889C336.499 283.731 338.302 283.554 340.144 283.373C355.433 281.871 373.409 280.104 387.517 286.461C388.713 273.257 396.842 257.618 405.587 248.133C413.464 239.59 423.133 230.946 432.843 224.176C450.574 211.816 472.661 207.733 494.006 203.788C500.061 202.669 506.057 201.561 511.875 200.277C513.941 199.822 516.002 199.378 518.057 198.934C530.225 196.311 542.21 193.726 553.819 189.128C557.463 187.686 566.505 189.131 565.733 191.014C564.203 194.739 563.353 198.694 562.506 202.64L562.483 202.746C560.906 210.097 559.576 217.496 558.246 224.897C556.864 232.588 555.48 240.281 553.819 247.922C553.31 250.268 548.351 242.403 548.153 239.559C519.694 259.059 484.451 272.018 451.224 284.235ZM655.662 390.432C647.082 375.533 634.516 362.635 622.071 350.771C625.315 349.502 628.407 343.193 630.178 339.576C630.314 339.298 630.442 339.037 630.562 338.794C632.885 334.101 635.587 329.345 638.25 324.844C641.163 319.918 647.246 306.238 652.564 294.272C656.148 286.212 659.385 278.93 661.075 275.627C666.046 265.912 699.205 167.823 698.466 157.657C698.45 157.434 698.434 157.217 698.418 157.007C698.115 152.942 697.99 151.261 700.287 147.991C702.219 145.238 705.492 141.687 708.573 138.345C710.533 136.219 712.415 134.177 713.823 132.481C715.328 140.658 712.219 151.041 709.411 160.423C708.286 164.183 707.209 167.783 706.495 171.015C704.879 178.338 703.068 185.555 701.255 192.779C700.139 197.227 699.022 201.679 697.95 206.158C697.148 209.509 695.921 212.627 694.695 215.744V215.745C693.788 218.051 692.881 220.358 692.145 222.758C691.196 225.862 690.497 229.032 689.797 232.206V232.207C689.068 235.511 688.338 238.821 687.323 242.064C686.597 244.385 685.821 246.689 685.047 248.987L685.046 248.991C681.594 259.239 678.182 269.369 679.45 280.39C680.802 292.123 682.417 304.77 686.265 315.915C690.831 329.137 695.124 341.625 696.152 355.716C697.129 369.119 693.873 383.071 690.358 395.915C689.113 400.462 679.718 433.438 676.869 432.964C675.225 421.629 668.165 410.472 661.596 400.092L661.595 400.09C659.504 396.786 657.463 393.56 655.662 390.432Z" fill="#A78BFA"/>
<path fill-rule="evenodd" clip-rule="evenodd" d="M334.508 370.123C335.635 370.509 336.051 369.779 335.754 367.935C334.627 367.432 334.211 368.161 334.508 370.123ZM725.554 89.2638C723.769 89.4278 724.778 91.191 725.838 91.8511C725.743 90.989 725.649 90.1269 725.554 89.2638ZM621.497 348.563C622.561 347.748 622.181 347.057 620.361 346.497C619.326 347.339 619.706 348.029 621.497 348.563ZM218.157 344.135C212.371 343.205 207.889 334.435 203.117 336.281C197.145 338.592 191.679 349.025 187.599 353.722C190.745 356.25 194.226 358.523 197.557 360.799C200.992 363.148 200.11 363.979 203.573 361.187C206.094 359.157 208.114 355.499 210.205 353.005C212.715 350.005 215.907 347.338 218.157 344.135ZM351.491 676.382C352.516 676.469 353.21 653.35 354.04 650.169C355.887 643.106 359.105 635.996 362.666 629.646C364.187 626.936 366.903 623.44 368.057 620.658C369.834 616.373 366.959 613.446 366.148 608.525C364.42 598.034 366.711 588.763 370.385 579.035C363.619 577.496 357.095 574.964 350.215 573.908C350.215 583.192 349.297 590.973 345.47 599.488C344.512 601.621 342.583 603.353 343.409 605.963C343.678 606.812 346.04 607.364 346.608 608.146C349.795 612.547 350.308 616.046 350.481 621.534C351.056 639.973 349.041 658.073 351.491 676.382ZM303.579 357.435C307.317 360.596 319.254 338.288 323.36 338.415C332.088 338.687 319.688 360.62 318.929 363.302C322.42 362.058 325.722 354.153 327.588 351.089C329.19 348.463 335.073 335.569 338.435 334.774C344.99 333.223 342.082 345.144 341.165 347.94C339.102 354.23 337.084 360.454 335.284 366.826C339.114 364.736 341.955 352.225 343.674 348.137C346.048 342.486 347.952 336.291 351.656 331.348C354.184 327.976 358.345 323.22 362.907 322.983C368.455 322.693 370.54 328.607 375.539 329.713C376.206 317.113 374.966 304.447 376.439 291.885C366.574 292.091 356.654 292.548 346.913 294.228C341.428 295.174 337.785 295.137 335.083 300.269C332.99 304.246 331.354 308.402 329.376 312.437C321.772 327.95 313.643 343.355 303.579 357.435ZM178.762 310.409C171.56 317.802 165.047 325.448 158.261 333.204C151.456 340.977 141.994 345.963 135.566 353.99C129.694 361.327 125.285 369.772 119.687 377.347C113.489 385.733 108.359 395.124 103.082 404.123C108.521 405.118 109.863 405.23 113.386 401.188C116.303 397.842 118.692 393.814 121.636 390.441C128.482 382.595 135.081 376.206 143.635 370.058C151.996 364.051 162.767 358.794 172.767 355.737C176.666 354.545 178.099 354.846 180.259 351.28C181.808 348.724 182.373 345.523 183.945 342.907C187.338 337.257 192.701 334.083 198.031 330.501C192.008 323.408 184.789 317.612 178.762 310.409ZM659.812 95.1455C657.837 96.6237 657.572 102.176 656.664 104.483C654.998 108.719 652.635 112.694 650.563 116.74C646.93 123.843 643.911 131.794 644.044 139.941C644.18 148.316 650.672 153.124 658.473 154.642C667.045 156.311 673.624 152.941 681.158 149.337C688.633 145.758 694.803 140.105 700.75 134.395C705.455 129.876 708.456 122.518 713.79 119.982C718.855 117.575 725.074 115.446 726.597 108.302C727.638 103.422 725.655 103.995 721.376 105.036C716.822 106.141 713.525 109.068 709.3 110.64C711.651 105.28 712.216 100.879 709.321 95.6265C707.654 92.6012 704.526 87.5946 700.737 87.4746C698.241 87.3946 695.256 90.1249 692.956 91.003C690.138 92.0771 687.017 92.5712 684.118 93.3703C675.525 95.7446 668.637 96.2006 659.812 95.1455ZM676.743 432.776C679.626 433.256 688.909 400.387 690.185 395.723C693.693 382.879 696.931 368.916 695.959 355.52C694.934 341.392 690.576 328.985 686.107 315.712C682.335 304.512 680.689 291.949 679.316 280.185C677.742 266.674 683.201 254.538 687.161 241.855C688.99 235.997 689.953 230.001 691.561 224.108C693.251 217.908 696.237 212.286 697.751 205.945C700.556 194.186 703.657 182.63 706.264 170.798C708.746 159.543 715.523 146.145 713.426 134.714C709.898 138.981 705.632 142.703 702.146 146.895C698.592 151.173 699.827 151.508 700.258 157.439C700.967 167.232 698.909 178.607 696.628 188.12C691.873 207.955 683.465 225.969 677.329 245.213C674.176 255.108 672.922 266.263 668.46 275.602C664.461 283.975 658.926 291.419 654.685 299.51C650.034 308.379 644.589 316.752 639.505 325.378C637.097 329.464 634.592 333.466 632.453 337.704C630.653 341.278 628.658 349.893 625.13 351.276C637.548 363.156 647.054 375.322 655.613 390.24C663.061 403.224 674.581 417.796 676.743 432.776ZM702.581 232.24C714.302 239.427 720.175 249.985 727.369 261.316C734.545 272.622 741.263 284.194 747.65 295.961C760.357 319.37 769.706 342.621 776.727 368.363C779.894 379.973 784.503 391.246 787.794 402.614C790.834 413.116 791.822 423.803 796.198 433.868C797.406 436.646 798.34 442.792 801.544 443.773C805.32 444.93 815.449 439.75 819.267 438.796C831.668 435.701 844.6 435.077 857.316 436.498C858.059 432.118 853.031 423.478 851.463 419.208C848.874 412.155 846.545 404.632 843.074 397.961C837.092 386.476 830.178 375.303 823.259 364.479C815.927 353.012 809.898 340.71 802.4 329.527C798.94 324.367 793.993 317.403 791.719 311.665C790.594 308.831 790.243 307.736 788.887 305.331C787.704 303.23 786.322 301.158 785.071 299.081C769.309 272.888 757.664 246.305 747.531 217.753C741.984 202.126 737.347 186.394 732.957 170.398C728.83 155.367 728.049 139.866 723.465 124.885C720.769 126.691 716.247 126.438 716.33 130.019C716.346 130.723 720.127 135.737 720.541 136.711C721.378 138.688 721.892 140.777 722.275 142.883C724.137 153.119 720.399 163.049 719.08 173.102C717.803 182.831 716.653 190.796 713.334 199.925C709.743 209.81 703.863 221.879 702.581 232.24ZM432.68 292.724C444.137 302.684 454.75 313.863 468.31 320.593C474.679 323.753 479.743 328.232 486.961 329.491C494.207 330.756 501.683 330.04 508.955 329.523C516.389 328.995 523.115 328.908 529.961 325.853C532.908 324.54 537.387 323.267 539.903 321.257C542.395 319.265 543.964 316.036 546.157 313.634C555.149 303.784 565.096 295.925 576.892 289.982C590.04 283.354 597.316 275.829 598.303 260.666C599.407 243.689 597.951 226.382 600.453 209.512C602.727 194.204 607.268 177.842 614.151 163.975C617.688 156.847 622.048 150.117 627.016 143.906C629.233 141.137 632.189 139.285 634.473 136.723C637.172 133.695 636.765 132.874 636.765 128.354C625.273 136.358 612.364 139.385 598.927 142.94C585.303 146.547 570.639 148.843 560.067 158.89C554.389 164.287 551.464 165.929 543.784 166.701C535.911 167.494 527.964 167.879 520.133 169.137C505.768 171.447 491.999 175.94 478.198 180.39C450.325 189.384 425.958 204.421 401.791 220.303C390.955 227.426 381.364 236.097 371.54 244.479C359.656 254.62 343.676 268.205 337.762 283.083C354.047 281.612 370.582 276.91 386.386 284.025C387.586 270.8 396.557 257.932 405.308 248.446C413.07 240.036 422.56 231.63 432.056 224.864C454.781 208.672 485.086 204.476 511.54 198.649C525.841 195.499 539.17 193.043 552.75 187.67C556.189 186.31 566.22 180.222 568.115 183.849C569.325 186.167 566.22 189.496 565.448 191.378C564.113 194.627 563.352 198.005 562.578 201.439C559.088 216.925 556.913 232.709 553.536 248.236C553.04 250.523 552.378 260.865 548.267 259.459C545.527 258.523 548.067 242.731 547.869 239.879C512.992 263.76 471.738 277.813 432.68 292.724ZM471.882 559.307C464.132 559.64 456.238 563.812 448.724 565.709C438.596 568.268 427.966 570.873 418.591 575.46C413.6 577.902 413.553 579.331 414.919 584.897C415.992 589.273 417.232 593.509 418.135 597.963C420.376 609.016 422.881 619.93 425.671 630.854C454.538 606.768 491.386 593.146 527.396 583.865C532.491 582.552 537.68 582.148 542.846 581.25C547.369 580.465 552.523 581.025 556.812 580.136C559.569 579.563 562.06 577.706 564.876 577.054C570.969 575.642 578.23 575.529 584.094 573.361C591.939 570.462 600.715 566.627 608.478 562.677C616.952 558.359 623.772 555.207 625.496 545.924C626.864 538.562 630.296 531.684 631.363 524.457C632.751 515.034 631.027 506.661 630.447 497.241C629.102 475.443 625.93 453.409 620.387 432.148C615.071 411.763 611.278 390.893 607.614 370.227C606.9 366.199 605.474 362.489 604.54 358.529C602.983 351.946 599.887 353.634 593.909 354.021C582.725 354.742 570.9 350.283 561.614 344.262C557.228 341.421 551.686 334.923 546.671 333.527C542.205 332.282 537.645 338.314 533.381 340.336C523.192 345.166 510.697 346.473 499.576 347.235C475.316 348.896 456.931 333.11 440.4 317.052C429.303 329.46 417.278 341.259 404.393 351.802C393.775 360.49 384.75 371.773 375.912 382.117C367.609 391.839 360.894 406.959 349.618 413.769C343.043 417.742 338.141 415.228 331.792 411.235C326.751 408.062 321.196 406.333 316.121 403.407C292.695 389.889 270.573 374.623 247.684 360.294C242.679 357.16 234.811 349.789 228.92 349.258C224.556 348.865 224.9 349.957 222.375 353.569C219.929 357.071 217.45 360.548 215.022 364.062C205.504 377.836 195.36 392.053 187.648 406.928C204.438 402.925 220.312 402.308 236.836 404.673C252.036 406.85 271.442 409.476 284.898 417.692C290.647 421.203 296.292 425.144 302.025 429.134C309.222 434.141 314.811 441.144 322.779 444.921C329.65 448.178 337.086 449.652 344.228 452.079C352.254 454.803 363.639 459.883 372.162 457.677C379.425 455.797 385.507 449.356 390.974 444.919C398.087 439.149 406.731 435.202 413.929 429.822C426.686 420.289 440.001 412.143 453.721 403.623C470.103 393.447 485.819 381.752 502.823 372.795C506.167 371.033 509.473 369.812 512.584 367.707C515.51 365.727 517.617 362.106 521.136 364.687C524.267 366.979 522.9 371.204 521.952 374.145C521.065 376.903 520.244 377.785 520.816 380.19C521.349 382.429 524.794 385.864 525.977 388.052C531.566 398.386 535.557 409.48 540.912 419.932C546.122 430.097 552.001 439.877 556.846 450.235C566.41 470.678 579.764 488.795 588.233 509.896C584.333 511.494 583.847 508.205 580.821 507.894C577.514 507.551 578.711 508.182 575.427 510.549C571.023 513.725 566.3 515.732 561.574 518.211C551.053 523.726 540.28 530.218 528.925 534.029C509.424 540.579 491.451 552.153 471.882 559.307ZM807.441 463.858C806.768 468.697 805.901 473.498 805.197 478.327C804.699 481.743 802.787 486.689 803.222 490.067C808.246 487.694 813.653 479.743 817.531 488.441C819.842 493.621 816.945 503.903 816.263 509.478C821.941 508.327 820.659 494.38 829.731 498.882C836.707 502.342 831.826 519.929 837.28 521.642C841.048 515.701 840.427 502.225 841.66 495.154C842.238 491.839 841.41 487.387 845.29 487.171C848.651 486.984 851.311 491.855 852.901 494.081C854.416 485.999 858.504 478.827 856.72 471.387C855.616 466.786 854.487 462.179 853.307 457.596C852.613 454.896 851.874 446.614 849.527 444.758C845.159 441.306 829.201 447.454 824.375 448.84C819.973 450.105 814.361 451.304 810.309 453.436C806.054 455.679 807.359 458.905 807.441 463.858ZM666.032 185.723C672.568 185.008 678.232 181.048 683.247 176.919C691.466 170.153 692.714 164.853 694.276 154.428C683.734 159.566 675.948 163.815 664.055 164.029C650.44 164.274 643.747 156.292 637.488 145.309C635.808 147.869 633.411 150.584 632.185 153.389C630.637 156.933 630.833 156.196 631.282 159.793C631.975 165.345 634.741 172.461 637.553 177.333C643.62 187.853 655.552 189.277 666.032 185.723ZM396.933 608.366H409.294C408.585 603.837 407.876 599.31 407.167 594.781C406.549 590.829 407.575 585.27 403.692 584.582C400.475 584.012 397.283 587.577 394.01 587.258C390.275 586.893 388.127 584.215 383.798 585.292C377.635 586.829 378.867 593.577 378.775 599.24C378.74 601.464 377.884 604.81 378.579 606.972C379.79 610.744 378.779 609.239 382.53 609.606C386.933 610.038 392.398 608.611 396.933 608.366ZM703.359 62.9781C707.888 63.6985 719.615 73.334 722.925 71.0357C727.419 67.9168 714.499 59.2997 711.852 57.9433C698.916 51.3135 674.717 56.552 666.021 68.6565C671.721 69.2105 678.684 63.9905 684.531 63.1325C690.795 62.2136 697.066 62.9937 703.359 62.9781ZM700.203 312.354C703.89 327.208 710.51 343.125 710.47 358.566C710.429 374.616 706.884 389.183 700.388 403.879C697.139 411.231 694.229 418.664 690.537 425.812C688.828 429.124 687.255 433.18 684.891 436.067C681.975 439.629 681.071 439.366 677.602 436.537C676.053 440.502 674.427 444.587 669.158 441.923C665.364 440.003 665.445 435.246 664.203 431.711C660.873 422.232 653.757 414.057 648.733 405.422C643.58 396.569 639.233 387.046 633.532 378.535C630.789 374.437 627.519 370.622 624.588 366.643C622.365 363.628 618.973 356.654 615.885 354.885C615.477 358.861 619.717 364.649 621.284 368.532C623.339 373.63 625.105 378.871 626.588 384.163C629.473 394.44 631.214 405.181 633.409 415.628C637.334 434.305 641.962 452.861 644.588 471.818C647.032 489.454 647.682 507.676 645.826 525.39C645.029 532.999 640.569 539.433 637.561 546.363C633.473 555.783 628.506 561.657 620.295 568.339C605.383 580.474 588.874 587.736 570.714 593.152C567.326 594.162 564.177 593.723 561 594.408C557.433 595.175 554.596 596.993 550.72 597.599C540.716 599.163 530.539 601.002 520.881 603.838C513.269 606.075 505.75 608.403 498.219 610.726C492.479 612.496 485.408 614.143 479.883 616.752C466.254 623.19 453.471 630.742 440.824 638.743C437.117 641.092 434.383 642.513 431.648 645.985C428.69 649.742 429.118 652.397 427.505 656.681C426.001 660.68 423.374 662.932 419.807 659.608C416.472 656.501 417.79 649.945 417.519 646.1C417.111 640.303 413.675 618.136 409.685 616.283C406.803 614.945 398.378 617.822 394.885 618.206C390.356 618.704 386.277 618.692 381.767 618.073C383.259 624.28 377.815 632.672 375.529 638.128C371.63 647.434 368.596 656.499 366.979 666.405C365.88 673.156 366.233 679.937 365.196 686.768C364.125 693.82 365.747 704.875 356.171 705.933C340.969 707.612 337.091 677.2 335.363 667.002C332.65 651.007 334.797 635.246 336.397 619.166C336.527 617.863 337.189 612.133 336.6 611.094C336.119 610.247 331.846 608.785 331.295 608.394C326.477 604.969 328.438 603.147 329.873 598.047C332.614 588.3 331.819 576.119 338.404 567.596C343.441 561.075 354.749 565.036 361.264 566.796C366.12 568.108 370.917 569.874 375.636 571.622C378.898 572.831 382.541 576.445 385.398 577.028C391.096 578.193 395.294 570.916 399.545 568.338C407.213 563.69 415.211 559.416 423.474 556.3C438.657 550.572 454.369 547.284 469.945 542.463C479.482 539.513 488.9 536.288 497.96 532.024C504.654 528.876 511.404 524.441 518.646 522.308C527.768 519.62 537.026 515.883 545.93 512.169C555.4 508.218 565.762 505.686 575.483 502.485C555.247 472.863 537.956 441.178 524.059 408.08C522.457 404.264 520.917 400.426 519.499 396.538C518.776 394.559 517.001 385.685 515.12 384.431C511.7 382.157 497.96 392.463 494.132 394.973C480.262 404.059 466.959 413.991 452.509 422.25C439.994 429.402 428.188 437.697 416.219 445.367C409.629 449.592 403.499 454.979 396.797 459.245C390.113 463.498 382.249 471.421 374.33 473.259C371.376 473.946 366.37 473.107 363.384 472.865C359.175 472.522 354.476 472.144 350.382 470.974C342.356 468.684 333.876 466.081 326.033 463.228C311.934 458.102 301.005 445.453 288.295 437.644C272.976 428.23 255.622 425.885 238.5 420.682C219.767 414.99 198.99 414.37 179.217 415.848C179.217 397.808 187.925 384.277 197.429 369.472C190.584 364.978 187.696 362.178 180.036 366.335C174.353 369.42 169.113 372.193 163.842 375.64C158.116 379.387 152.021 382.26 146.319 386.368C140.121 390.832 134.699 395.568 128.976 400.565C124.671 404.323 119.77 407.739 115.267 411.135C110.821 414.491 106.293 414.005 100.607 411.719C98.9303 411.044 93.6937 408.689 92.8076 407.554C91.0214 405.268 92.3425 403.673 93.8267 400.657C97.2581 393.678 101.643 386.596 106.121 380.215C110.119 374.52 115.307 369.765 119.494 364.211C123.468 358.943 126.309 352.823 130.913 348.047C136.062 342.706 142.167 338.418 147.029 332.727C149.452 329.888 152.214 326.862 152.406 323.512C152.553 320.941 149.692 318.452 149.665 316.608C149.604 312.279 157.021 307.877 160.117 304.692C164.663 300.015 169.153 295.974 176.175 297.981C181.33 299.453 189.086 305.951 192.926 309.726C197.759 314.479 201.764 319.98 206.749 324.682C209.551 327.326 212.538 329.739 215.434 332.274C217.146 333.772 219.86 338.069 221.754 338.945C223.447 339.73 225.101 338.988 227.468 338.924C226.402 338.951 231.798 339.86 231.511 339.782C234.066 340.466 236.587 341.208 239.104 342.022C249.452 345.365 258.987 351.006 268.324 356.623C292.039 370.89 314.294 386.095 337.521 401.301C344.402 405.804 346.293 405.484 351.575 399.037C356.505 393.022 360.592 386.339 365.223 380.103C372.853 369.829 381.456 359.836 390.465 350.706C399.741 341.311 410.431 333.444 420.343 324.75C423.096 322.335 434.442 314.183 433.724 311.126C433.32 309.4 429.653 306.487 428.491 304.719C426.758 302.085 424.96 299.112 423.681 296.205C416.152 279.095 435.694 277.923 447.128 272.636C461.088 266.18 474.907 259.049 489.175 253.285C496.339 250.392 503.512 247.749 510.745 245.067C517.403 242.596 523.466 238.592 530.018 235.867C534.845 233.858 545.329 233.093 548.545 228.822C550.444 226.302 549.627 218.345 549.96 215.41C550.51 210.539 551.322 205.695 552.596 200.958C550.205 200.526 545.714 203.153 543.539 204.163C539.35 206.107 535.703 208.021 531.056 209.244C521.113 211.859 510.702 212.157 500.905 214.994C485.995 219.316 470.097 221.815 455.513 228.016C438.72 235.152 424.262 247.708 412.466 261.259C406.377 268.254 401.536 274.979 397.381 283.282C396.305 285.432 395.029 292.639 393.374 294.139C391.268 296.049 385.707 294.039 383.313 293.644C383.313 300.003 383.446 306.373 383.218 312.72C382.975 319.422 384.184 329.701 381.865 335.883C379.689 341.687 375.628 340.485 371.327 337.599C365.611 333.765 362.679 331.565 357.556 337.507C348.643 347.842 345.27 363.898 339.157 375.996C337.153 379.959 332.216 388.255 329.517 380.111C327.549 374.175 330.812 366.604 329.288 360.741C327.204 364.399 320.975 375.283 316.047 375.253C309.266 375.212 311.478 364.683 311.705 360.391C307.706 364.659 295.972 378.604 293.131 367.426C290.95 358.847 297.04 350.333 301.364 343.578C306.396 335.717 311.342 327.737 316.564 320.012C321.674 312.451 325.093 303.884 330.273 296.276C326.324 296.823 318.682 295.533 321.11 289.421C322.381 286.225 326.398 287.568 328.359 285.584C330.403 283.518 331.503 277.652 332.646 274.945C338.28 261.603 346.358 250.634 355.701 239.786C372.207 220.616 393.284 205.31 414.533 192.472C439.851 177.175 465.952 167.873 494.302 160.395C507.737 156.854 521.36 155.224 534.94 152.672C540.578 151.613 546.295 151.016 550.756 147.444C557.407 142.118 561.791 138.174 569.807 134.775C576.285 132.029 582.431 130.762 589.497 129.588C597.069 128.329 605.758 130.003 613.034 127.866C619.08 126.088 626.127 122.228 631.619 119.139C634.386 117.584 639.285 116.708 640.777 115.385C643.661 112.833 645.57 106.471 647.41 103.044C642.855 104.238 641.12 101.001 639.901 97.0817C637.874 90.563 637.853 92.7292 631.525 89.9999C627.777 88.3827 626.563 84.0672 623.593 82.5351C620.408 80.8909 615.354 84.4373 611.592 83.2841C608.54 82.349 605.558 79.0697 605.725 75.5803C605.794 74.1231 607.329 72.8309 607.356 71.6448C607.422 68.8645 605.151 67.3288 605.483 64.2813C605.997 59.5645 608.393 60.3614 606.359 55.2501C604.333 50.1623 605.123 49.1589 605.732 43.8853C605.901 42.4278 605.151 40.0798 606.17 38.8403C606.763 38.116 608.935 38.0044 609.157 37.6383C609.986 36.2717 610.013 35.149 610.18 32.6426C610.276 31.2149 609.833 28.3594 611.32 27.3029C612.61 26.3853 614.44 28.0907 615.57 27.5508C616.551 27.0822 617.399 24.7473 619.01 24.4655C624.959 23.4246 623.144 29.4769 626.181 21.9229C627.942 17.5475 629.293 15.7563 632.449 13.2683C633.821 13.9016 634.676 13.6459 635.017 12.4986C635.478 11.6692 635.942 10.8411 636.404 10.013C638.866 9.43022 639.22 11.2746 641.126 9.46262C644.324 6.42158 641.034 -0.313491 647.495 1.48941C652.181 2.79646 653.32 8.80585 658.223 10.2492C658.899 8.29189 658.811 2.57054 661.658 1.99167C664.557 1.40241 666.763 6.68501 667.817 8.41C668.503 6.92643 669.637 2.48363 670.767 1.39721C674.013 -1.72435 673.031 1.29989 675.903 1.71524C676.354 2.2435 676.806 2.77306 677.256 3.30262C678.759 2.56924 680.238 1.79575 681.694 0.976756C684.843 0.380988 683.721 0.706726 686.468 1.81775C688.663 2.70685 687.35 3.72317 690.019 4.28253C691.957 4.68618 693.597 2.67445 695.754 3.29092C696.381 3.56485 697.01 3.83998 697.637 4.11381C698.527 6.08544 699.891 6.43458 701.73 5.15993C703.899 6.05424 706.826 9.64825 709.135 9.53013C713.548 9.30041 712.509 3.22471 717.35 3.52195C719.144 3.63096 723.782 8.45671 725.063 9.88967C726.857 11.9002 726.35 13.6368 728.597 15.8979C731.854 19.1725 729.943 17.4164 733.053 18.8987C737.686 21.109 739.394 20.2733 741.302 25.5935C742.963 30.2207 743.894 35.977 743.912 40.8793C743.922 43.9386 741.723 50.6853 745.967 49.2057C748.947 48.1672 748.447 40.7807 751.645 43.0976C754.076 44.8576 749.278 54.2689 749.223 56.4767C749.062 62.8288 750.076 63.3377 746.14 68.0844C744.274 70.3327 739.999 74.4751 739.052 77.3875C737.931 80.8329 740.905 86.7995 741.592 89.8769C743.08 96.5556 741.824 97.9668 737.412 103.215C736.939 103.498 736.466 103.782 735.992 104.066C733.637 104.061 732.983 105.236 734.031 107.587C733.093 110.21 733.206 112.738 731.878 115.375C731.153 116.815 727.949 119.732 727.786 121.157C727.497 123.699 728.759 124.144 730.898 126.778C739.523 137.4 743.474 151.166 747.741 163.942C755.256 186.448 764.519 208.398 773.491 230.424C776.988 239.01 780.531 247.256 784.159 255.938C788.676 266.746 795.023 276.614 800.391 287.088C804.102 294.328 807.888 302.277 812.526 308.523C818.359 316.382 821.637 326.483 826.752 334.989C832.217 344.075 838.598 353.028 843.868 362.378C848.908 371.321 855.135 379.507 859.921 388.692C865.895 400.159 872.851 413.937 874.496 426.931C875.077 431.537 876.888 439.132 874.031 443.073C871.071 447.152 862.923 448.858 858.79 445.812C862.923 455.437 865.494 466.22 867.349 476.513C868.15 480.959 869.267 484.885 868.287 489.428C867.41 493.49 868.864 491.125 865.585 493.5C862.838 495.489 864.107 489.882 861.949 495.598C861.495 496.803 862.387 500.147 862.355 501.546C862.23 507.162 861.812 512.881 861.593 518.53C861.427 522.815 862.118 526.431 856.853 525.978C852.632 525.613 850.542 521.132 848.669 517.969C847.966 523.005 847.563 528.032 846.982 533.082C846.466 537.563 847.496 541.988 841.759 541.506C832.352 540.713 828.644 523.665 826.26 516.542C821.975 522.189 819.891 533.399 818.006 540.304C816.212 546.877 814.12 560.867 804.949 552.26C798.839 546.525 801.206 535.245 802.302 527.906C802.663 525.486 807.822 504.216 805.41 502.99C801.961 506.679 797.945 512.707 792.267 509.455C787.163 506.531 788.824 500.036 789.23 495.347C790.386 482.01 794.963 469.225 798.356 456.3C796.426 455.868 791.732 455.484 790.141 454.046C788.103 452.205 789.36 451.311 788.465 448.958C787.255 445.771 785.08 442.534 783.364 439.507C777.772 429.645 776.048 419.812 773.158 409.079C770.368 398.713 765.11 389.588 762.322 379.089C759.231 367.458 755.939 356.027 752.292 344.442C744.33 319.133 732.861 295.036 719.675 272.082C717.943 269.068 703.758 236.515 701.622 237.476C700.098 238.163 699.225 246.587 698.644 248.863C697.295 254.134 697.031 259.676 696.714 265.109C691.517 277.781 697.049 299.648 700.203 312.354Z" fill="black"/>
<path fill-rule="evenodd" clip-rule="evenodd" d="M220.81 269.453C226.105 270.716 227.999 258.373 228.592 254.552C229.551 248.356 230.651 243.028 233.989 237.611C235.612 234.975 237.551 232.267 239.656 229.995C240.884 228.673 243.963 226.949 244.606 225.529C246.383 221.605 244.318 211.74 244.342 207.324C244.357 204.489 242.503 191.294 245.831 190.374C250.155 189.176 251.282 201.21 251.76 203.918C252.307 207.02 252.217 210.011 252.548 213.079C252.854 215.944 254.413 217.717 255.01 219.627C256.718 225.081 252.663 229.663 249.756 234.577C246.522 240.047 243.022 245.361 240.751 251.332C238.287 257.81 238.445 264.634 236.519 271.193C233.388 281.851 220.254 287.662 209.616 284.536C203.961 282.874 205.15 279.051 203.358 274.648C202.68 272.977 200.774 272.048 200.207 269.828C199.606 267.478 200.156 264.42 200.617 262.046C202.854 250.558 206.485 238.53 209.992 227.353C190.903 237.867 170.686 244.795 148.705 244.399C137.779 244.202 129.819 241.858 121.905 251.194C115.771 258.43 115.779 271.156 113.276 280.154C110.56 289.922 108.109 302.433 101.925 310.607C94.4628 320.47 84.2756 318.847 83.5155 305.693C82.8664 294.479 88.4441 283.852 87.508 272.469C87.0379 266.741 84.7827 261.693 84.9207 255.893C85.0407 250.908 86.0188 246.226 86.9409 241.317C76.0227 242.641 67.5667 247.13 59.8098 254.658C52.547 261.705 49.5186 270.407 43.521 278.468C38.0483 285.823 33.2058 295.943 22.4031 295.692C8.61428 295.371 7.74628 278.392 12.917 269.318C15.5599 264.68 19.2316 261.049 22.591 256.964C26.311 252.442 26.75 248.81 27.5171 243.033C28.1002 238.628 28.2602 232.808 32.2237 229.904C35.7881 227.289 40.2626 228.561 43.56 225.094C46.7143 221.782 49.2046 216.766 52.0379 213.103C55.5763 208.529 59.2387 203.804 62.3861 198.949C69.1569 188.498 78.0549 181.226 87.433 173.049C84.0326 170.93 75.0655 173.272 70.8541 172.601C63.9343 171.498 54.9793 168.203 49.6177 163.465C38.4894 153.626 33.1408 140.829 32.5927 126.039C32.0657 111.833 34.2939 94.7004 44.8491 84.1432C50.2277 78.7626 57.1155 74.0531 63.9123 70.6217C68.4378 68.3384 77.7579 63.3575 82.9905 65.414C95.0718 70.1666 67.7477 89.0668 64.1453 92.0911C52.666 101.725 45.9812 111.024 46.2483 126.435C46.5063 141.42 60.9429 148.544 73.0173 153.501C79.28 156.072 86.8449 158.136 93.8407 157.948C101.769 157.737 107.161 153.182 114.382 150.511C128.596 145.254 143.178 141.72 157.829 138.178C172.257 134.689 187.951 135.477 202.726 133.199C216.616 131.057 229.594 128.415 242.724 123.364C256.319 118.132 266.805 102.53 281.633 100.889C290.83 99.872 286.335 106.383 282.361 109.722C277.607 113.718 272.444 117.198 267.687 121.205C255.567 131.414 242.873 137.418 227.513 141.31C216.356 144.135 204.326 146.778 192.469 148.464C177.5 150.593 162.434 149.928 147.729 153.805C139.023 156.099 130.568 159.023 122.354 162.752C118.99 164.279 112.031 166.727 111.408 169.443C110.6 172.959 113.413 172.889 110.022 176.129C104.308 181.586 96.877 185.446 91.1064 191.108C84.6786 197.416 78.565 203.535 73.3584 210.932C68.1938 218.271 64.0703 225.382 56.4224 230.444C53.8871 232.121 49.5826 235.063 46.7013 235.836C44.05 236.546 42.8379 235.457 40.5686 236.934C34.5309 240.856 38.1483 253.105 36.5552 259.17C34.5169 266.938 29.2983 272.769 26.049 279.974C30.5955 278.989 33.7688 271.461 36.1061 267.909C38.7264 263.926 42.0438 261.242 45.3772 257.8C52.387 250.563 54.2422 240.665 62.5741 233.851C77.6669 221.509 101.129 222.574 113.722 206.029C115.761 203.349 117.677 195.603 120.125 193.917C124.607 190.829 124.227 200.055 123.766 202.794C122.19 212.143 116.424 223.192 108.886 229.094C105.475 231.766 100.703 232.989 97.7431 236.458C97.0181 236.745 96.295 237.034 95.5689 237.321C96.0019 238.862 96.238 240.428 96.273 242.019C96.342 244.8 95.6679 247.511 95.5549 250.314C95.2739 257.372 96.835 263.406 98.2482 270.166C99.2603 274.995 96.538 285.062 98.7072 288.999C102.993 274.616 108.032 258.003 116.152 245.221C118.07 242.197 121.876 239.701 123.387 236.588C124.104 235.79 124.822 234.991 125.54 234.193C124.282 233.028 123.186 231.728 122.252 230.294C117.383 220.062 128.051 226.388 132.307 227.258C139.149 228.654 147.675 225.784 154.78 225.569C161.703 225.359 168.531 225.128 175.299 224.053C182.608 222.894 190.191 221.141 197.34 219.225C204.519 217.297 211.153 213.335 218.131 211.594C211.155 206.825 208.948 200.619 206.534 192.867C204.948 187.769 199.314 175.402 202.86 170.229C206.704 164.618 208.076 173.246 209.322 176.303C211.431 181.469 214.623 190.286 218.531 194.163C220.637 196.253 223.482 196.024 225.365 198.812C226.749 200.864 226.937 203.698 227.153 206.076C227.794 213.098 225.018 218.719 222.542 225.111C216.768 240.016 214.434 255.956 206.882 270.136C211.475 270.576 216.23 269.916 220.81 269.453Z" fill="black"/>
<path fill-rule="evenodd" clip-rule="evenodd" d="M317.436 152.022C321.122 151.155 332.721 149.89 329.356 143.132C325.95 136.297 316.887 147.35 317.436 152.022ZM427.239 98.2098C425.075 97.5378 421.64 95.9726 419.323 96.1386C416.577 96.3356 414.535 98.3259 411.749 98.5889C406.063 99.1259 401.667 96.6997 397.951 102.771C405.856 102.771 421.667 105.451 427.239 98.2098ZM278.114 239.804C285.636 240.853 289.373 207.629 289.771 203.277C286.398 202.932 277.303 209.558 276.509 212.61C275.638 215.963 278.639 221.343 279.003 224.828C279.543 229.988 278.97 234.723 278.114 239.804ZM320.032 50.1579C310.974 51.04 300.841 53.9716 292.528 48.9345C285.789 44.8523 283.292 36.2389 277.617 31.1824C277.617 45.7655 290.729 57.2561 304.073 61.8832C310.867 64.239 321.278 60.6859 327.28 64.5256C329.022 65.6386 332.733 70.7097 332.869 72.8039C333.334 79.9438 328.244 73.554 325.362 73.7751C321.356 74.0811 315.78 84.6403 312.441 87.8507C309.929 90.2659 307.094 92.2262 304.257 94.3014C303.322 94.9865 298.516 97.4177 298.276 98.5929C298.065 99.636 300.7 103.468 301.255 104.458C305.076 111.265 309.678 116.144 315.717 120.946C318.692 123.313 321.793 124.63 324.775 126.595C325.748 127.239 329.706 132.629 328.556 132.402C330.219 127.352 334.953 121.502 338.104 117.038C341.333 112.459 345.589 107.664 351.003 105.811C353.381 104.996 357.319 104.297 359.794 104.097C361.532 104.035 363.254 104.179 364.959 104.525C367.441 105.62 368.412 104.739 367.871 101.878C370.478 96.4636 368.942 89.6469 372.257 84.1472C376.148 77.6895 382.513 74.7642 389.805 75.4923C393.081 75.8193 396.611 77.2254 399.856 76.6514C403.071 76.0833 406.715 73.489 409.862 72.3709C422.083 68.0254 437.165 62.7446 446.747 53.6914C448.201 52.3189 452.308 48.5104 452.631 46.5373C451.776 44.6123 450.921 42.6898 450.067 40.7661C449.842 37.946 448.471 37.1767 445.952 38.4596C442.984 38.3974 437.356 41.8025 434.386 42.7767C430.614 44.0143 426.822 45.1026 423.111 46.4997C416.672 48.9242 410.402 51.4148 403.641 52.8573C396.639 54.349 393.307 55.2584 389.622 48.6258C386.019 42.1424 386.531 38.3507 378.144 39.2989C370.669 40.1421 364.405 42.9622 357.513 45.938C352.936 47.9137 346.975 51.5523 342.32 52.3319C338.871 52.9105 335.147 51.5666 331.824 50.8738C327.626 50.0008 324.3 50.154 320.032 50.1579ZM406.858 87.8117H410.625C407.706 86.0965 404.786 84.3803 401.868 82.6661C397.758 89.2968 387.489 86.4135 381.264 90.3649C376.151 93.6103 371.351 107.441 376.26 112.478C383.083 119.479 386.441 103.944 388.378 100.366C392.32 93.0823 398.256 87.6276 406.858 87.8117ZM287.534 102.658C284.479 96.8937 286.482 91.3831 291.015 88.3237C297.556 83.9122 304.139 79.0787 310.552 74.1911C299.652 72.4809 291.839 68.8765 282.952 62.2282C272.698 54.5567 269.78 47.4675 270.067 34.5097C270.211 28.0055 269.302 9.51913 279.801 14.8856C288.474 19.3194 289.67 31.7181 299.001 35.921C308.219 40.0721 319.078 35.7666 328.773 38.9993C331.532 39.9203 338.913 46.3985 341.155 46.3687C344.133 46.3272 351.614 39.7452 354.43 38.1821C361.496 34.262 370.635 30.439 378.507 29.3092C383.451 28.5996 385.06 28.0911 388.643 31.735C392.655 35.8146 393.913 40.8582 395.344 46.1585C410.565 39.8918 425.94 34.0427 441.59 28.933C446.56 27.3103 449.973 25.2347 454.214 22.6195C460.285 18.8758 463.663 20.6089 464.767 28.3493C466.711 41.9854 458.378 50.7065 451.137 60.9129C447.143 66.5414 444.416 70.5177 437.923 73.392C431.165 76.3833 423.03 75.4192 415.69 77.6675C417.574 79.9608 418.569 85.3014 420.227 86.9136C421.577 88.2237 428.032 88.0067 430.209 89.1508C436.734 92.5802 435.958 98.3048 431.915 103.965C427.354 110.35 420.612 111.527 413.243 112.083C409.946 112.331 407.005 112.376 403.704 112.143C401.569 111.992 394.133 109.685 392.523 110.369C390.617 111.177 390.174 115.384 389.305 117.305C387.925 120.358 386.391 123.449 383.145 124.86C380.335 126.079 377.168 125.75 374.614 124.075C371.189 121.833 372.128 119.184 369.973 116.305C369.77 113.272 368.477 112.697 366.094 114.578C364.274 115.215 362.456 115.859 360.641 116.508C356.888 117.876 353.381 119.195 350.077 121.492C343.747 125.891 339.915 133.312 332.861 136.405C337.464 144.271 334.589 154.973 326.844 159.058C325.098 159.978 322.96 161.109 321.105 161.705C319.722 162.15 316.106 161.79 315.172 162.561C313.819 163.681 313.076 174.278 312.129 176.639C308.872 184.757 301.957 188.796 297.864 196.159C293.872 203.345 294.73 214.496 293.568 222.59C292.128 232.614 291.214 243.137 286.921 252.439C284.049 258.663 275.433 266.042 267.827 264.815C256.642 263.012 261.505 248.722 264.935 242.564C270.227 233.066 270.22 225.879 268.878 215.373C264.462 216.029 253.521 220.35 254.047 211.935C254.407 206.195 266.797 200.935 271.14 198.052C280.956 191.537 291.001 183.957 299.29 175.609C302.717 172.158 307.621 165.787 309.364 161.067C310.634 157.624 310.362 154.274 310.637 150.673C310.891 147.358 313.8 142.807 313.656 139.91C313.443 135.613 302.129 128.748 298.895 124.2C294.287 117.719 290.412 110.055 287.534 102.658Z" fill="black"/>
<path fill-rule="evenodd" clip-rule="evenodd" d="M514.122 117.085C517.59 116.632 530.914 112.94 533.204 116.396C537.379 122.701 525.106 123.875 522.019 124.447C508.382 126.968 495.039 130.323 481.815 134.08C455.508 141.552 428.686 150.93 404.183 163.103C400.346 165.009 389.07 172.767 385.23 168.848C380.267 163.786 392.306 158.17 395.063 156.592C407.284 149.601 420.198 143.329 433.315 138.18C459.152 128.04 486.45 120.136 514.122 117.085Z" fill="black"/>
<path fill-rule="evenodd" clip-rule="evenodd" d="M185.301 449.908C204.871 446.989 226.134 451.296 245.126 457.238C251.212 459.141 257.554 461.352 263.124 464.455C266.125 466.124 273.26 469.097 274.958 472.221C277.791 477.431 274.62 479.651 270.062 478.795C265.727 477.98 260.402 475.488 255.877 474.35C235.162 469.135 214.569 465.224 193.588 463.136C188.569 462.636 184.923 463.219 180.085 464.1C176.468 464.76 166.92 468.69 164.202 466.385C154.377 458.059 180.625 450.425 185.301 449.908Z" fill="black"/>
<path fill-rule="evenodd" clip-rule="evenodd" d="M489.792 489.976C491.117 497.399 487.341 498.092 481.034 501.562C474.591 505.106 468.155 508.018 461.35 510.878C454.018 513.96 446.335 517.122 438.696 519.371C432.226 521.277 422.25 525.55 415.531 524.917C412.82 524.66 411.068 525.015 411.047 521.655C411.028 518.012 414.454 518.23 417.281 517.425C425.934 514.962 434.312 511.265 442.821 508.332C458.846 502.812 474.898 498.15 489.792 489.976Z" fill="black"/>
<path fill-rule="evenodd" clip-rule="evenodd" d="M4.34981 126.913C-0.668961 118.628 -0.568043 107.584 0.820715 98.2229C1.28867 95.0675 8.90193 71.7398 13.5019 76.5894C16.2301 79.4657 6.94311 97.7858 5.9706 101.972C4.79757 107.02 4.1947 112.012 4.96789 117.172C5.17851 118.566 8.30276 127.418 4.34981 126.913Z" fill="black"/>
<path fill-rule="evenodd" clip-rule="evenodd" d="M267.365 173.939C263.69 168.913 268.611 157.667 270.099 152.323C271.017 149.031 273.82 136.662 278.264 139.303C282.578 141.865 277.749 153.457 276.885 156.658C275.603 161.407 273.74 173.819 267.365 173.939Z" fill="black"/>
<path fill-rule="evenodd" clip-rule="evenodd" d="M675.077 441.791C675.752 440.184 676.428 438.578 677.103 436.969C678.819 438.274 681.216 438.915 679.468 440.893C678.394 442.111 676.586 442.108 675.077 441.791Z" fill="black"/>
<path fill-rule="evenodd" clip-rule="evenodd" d="M613.07 128.211C610.061 128.672 608.051 128.697 605.069 128.627C607.737 128.488 610.404 128.35 613.07 128.211Z" fill="black"/>
<path fill-rule="evenodd" clip-rule="evenodd" d="M710.592 361.961C710.584 359.961 710.576 357.959 710.57 355.96C710.577 357.962 710.584 359.962 710.592 361.961Z" fill="black"/>
<path fill-rule="evenodd" clip-rule="evenodd" d="M226.536 211.944C226.528 209.942 226.523 207.941 226.517 205.943C226.524 207.945 226.53 209.945 226.536 211.944Z" fill="black"/>
<path fill-rule="evenodd" clip-rule="evenodd" d="M320.036 36.678C318.036 36.665 316.035 36.654 314.036 36.641C316.046 35.8279 318.041 36.219 320.036 36.678Z" fill="black"/>
<path fill-rule="evenodd" clip-rule="evenodd" d="M333.577 652.994C333.553 654.328 333.526 655.663 333.499 656.995C333.524 655.658 333.55 654.325 333.577 652.994Z" fill="black"/>
<path fill-rule="evenodd" clip-rule="evenodd" d="M81.0092 173.422C82.0133 173.433 83.0155 173.443 84.0096 173.456C83.0035 173.446 82.0063 173.434 81.0092 173.422Z" fill="black"/>
<path fill-rule="evenodd" clip-rule="evenodd" d="M645.599 526.98C645.582 525.644 645.567 524.308 645.549 522.979C645.565 524.316 645.581 525.649 645.599 526.98Z" fill="black"/>
<path fill-rule="evenodd" clip-rule="evenodd" d="M696.485 264.95C696.547 263.615 696.611 262.28 696.673 260.949C696.61 262.287 696.547 263.618 696.485 264.95Z" fill="black"/>
<path fill-rule="evenodd" clip-rule="evenodd" d="M605.678 62.9268C605.606 64.2615 605.534 65.5974 605.46 66.9273C605.532 65.5915 605.605 64.2603 605.678 62.9268Z" fill="black"/>
<path fill-rule="evenodd" clip-rule="evenodd" d="M862.579 501.977C862.592 500.641 862.605 499.307 862.618 497.976C862.604 499.313 862.592 500.645 862.579 501.977Z" fill="black"/>
<path fill-rule="evenodd" clip-rule="evenodd" d="M464.61 40.9243C464.573 39.5885 464.536 38.2525 464.497 36.9239C464.534 38.2612 464.572 39.5928 464.61 40.9243Z" fill="black"/>
<path fill-rule="evenodd" clip-rule="evenodd" d="M46.4203 126.934C46.4773 125.599 46.5333 124.264 46.5903 122.934C46.5323 124.271 46.4773 125.603 46.4203 126.934Z" fill="black"/>
<path fill-rule="evenodd" clip-rule="evenodd" d="M407.046 112.439C408.05 112.434 409.053 112.43 410.047 112.425C409.039 112.43 408.043 112.434 407.046 112.439Z" fill="black"/>
<path fill-rule="evenodd" clip-rule="evenodd" d="M743.684 44.9248C743.618 43.589 743.551 42.256 743.486 40.9243C743.552 42.2601 743.619 43.5917 743.684 44.9248Z" fill="black"/>
<path fill-rule="evenodd" clip-rule="evenodd" d="M84.5077 251.948C84.5097 253.285 84.5117 254.62 84.5117 255.949C84.5097 254.612 84.5087 253.281 84.5077 251.948Z" fill="black"/>
<path fill-rule="evenodd" clip-rule="evenodd" d="M868.721 483.975C868.639 482.641 868.558 481.307 868.477 479.974C868.558 481.311 868.64 482.642 868.721 483.975Z" fill="black"/>
<path fill-rule="evenodd" clip-rule="evenodd" d="M371.042 473.522C372.046 473.49 373.05 473.458 374.043 473.426C373.037 473.459 372.039 473.492 371.042 473.522Z" fill="black"/>
<path fill-rule="evenodd" clip-rule="evenodd" d="M696.697 291.953C696.618 290.618 696.54 289.284 696.461 287.952C696.54 289.288 696.618 290.621 696.697 291.953Z" fill="black"/>
<path fill-rule="evenodd" clip-rule="evenodd" d="M217.025 449.458C215.691 449.467 214.357 449.476 213.024 449.484C214.358 449.476 215.691 449.467 217.025 449.458Z" fill="black"/>
<path fill-rule="evenodd" clip-rule="evenodd" d="M185.021 449.283C183.687 449.408 182.354 449.534 181.021 449.659C182.355 449.533 183.688 449.408 185.021 449.283Z" fill="black"/>
<path fill-rule="evenodd" clip-rule="evenodd" d="M695.623 282.952C695.594 281.951 695.563 280.95 695.535 279.952C695.565 280.953 695.595 281.952 695.623 282.952Z" fill="black"/>
<path fill-rule="evenodd" clip-rule="evenodd" d="M740.668 87.9297C740.611 86.9276 740.556 85.9275 740.5 84.9294C740.557 85.9315 740.612 86.9306 740.668 87.9297Z" fill="black"/>
<path fill-rule="evenodd" clip-rule="evenodd" d="M434.538 96.9307C434.546 95.9296 434.554 94.9305 434.562 93.9304C434.555 94.9325 434.547 95.9306 434.538 96.9307Z" fill="black"/>
<path fill-rule="evenodd" clip-rule="evenodd" d="M295.382 372.183C295.932 372.214 296.482 372.246 297.034 372.278C295.801 373.341 294.358 372.248 295.382 372.183Z" fill="black"/>
<path fill-rule="evenodd" clip-rule="evenodd" d="M356.041 472.49C356.711 472.478 357.379 472.466 358.041 472.455C357.369 472.468 356.705 472.478 356.041 472.49Z" fill="black"/>
<path fill-rule="evenodd" clip-rule="evenodd" d="M867.712 475.974C867.637 474.973 867.561 473.973 867.486 472.974C867.562 473.976 867.637 474.974 867.712 475.974Z" fill="black"/>
<path fill-rule="evenodd" clip-rule="evenodd" d="M87.637 278.951C87.552 279.953 87.467 280.954 87.383 281.952C87.468 280.95 87.553 279.95 87.637 278.951Z" fill="black"/>
<path fill-rule="evenodd" clip-rule="evenodd" d="M546.062 150.173C544.865 151.064 543.421 150.566 542.062 150.535C543.396 150.414 544.73 150.294 546.062 150.173Z" fill="black"/>
<path fill-rule="evenodd" clip-rule="evenodd" d="M861.575 514.978C861.591 513.976 861.607 512.975 861.622 511.978C861.606 512.981 861.591 513.98 861.575 514.978Z" fill="black"/>
<path fill-rule="evenodd" clip-rule="evenodd" d="M635.454 551.983C635.533 550.98 635.611 549.979 635.69 548.982C635.611 549.986 635.533 550.984 635.454 551.983Z" fill="black"/>
<path fill-rule="evenodd" clip-rule="evenodd" d="M70.008 172.381C70.6781 172.42 71.3471 172.457 72.0082 172.497C71.3371 172.46 70.6721 172.42 70.008 172.381Z" fill="black"/>
<path fill-rule="evenodd" clip-rule="evenodd" d="M514.059 117.271C512.724 117.379 511.392 117.487 510.058 117.595C511.392 117.487 512.724 117.379 514.059 117.271Z" fill="black"/>
<path fill-rule="evenodd" clip-rule="evenodd" d="M417.682 647.994C417.592 648.994 417.503 649.996 417.414 650.994C417.503 649.99 417.592 648.992 417.682 647.994Z" fill="black"/>
<path fill-rule="evenodd" clip-rule="evenodd" d="M221.025 269.3C219.692 269.399 218.359 269.499 217.025 269.6C218.359 269.499 219.692 269.399 221.025 269.3Z" fill="black"/>
<path fill-rule="evenodd" clip-rule="evenodd" d="M389.044 608.648C391.711 608.542 394.377 608.436 397.045 608.331C394.379 608.436 391.711 608.542 389.044 608.648Z" fill="black"/>
<path fill-rule="evenodd" clip-rule="evenodd" d="M632.473 514.978C632.539 513.31 632.606 511.642 632.671 509.978C632.605 511.646 632.539 513.313 632.473 514.978Z" fill="black"/>
<path fill-rule="evenodd" clip-rule="evenodd" d="M686.078 63.6084C687.744 63.4874 689.411 63.3664 691.079 63.2454C689.413 63.3664 687.744 63.4874 686.078 63.6084Z" fill="black"/>
<path fill-rule="evenodd" clip-rule="evenodd" d="M210.024 403.306C211.691 403.412 213.358 403.52 215.025 403.626C213.357 403.519 211.69 403.412 210.024 403.306Z" fill="black"/>
<path fill-rule="evenodd" clip-rule="evenodd" d="M328.587 364.961C327.883 363.461 327.921 362.128 328.701 360.961C329.12 362.323 329.082 363.655 328.587 364.961Z" fill="black"/>
<path fill-rule="evenodd" clip-rule="evenodd" d="M807.569 459.972C807.584 461.309 807.598 462.644 807.615 463.973C807.601 462.634 807.586 461.303 807.569 459.972Z" fill="black"/>
<path fill-rule="evenodd" clip-rule="evenodd" d="M406.569 590.987C406.553 589.651 406.538 588.315 406.523 586.987C406.539 588.327 406.554 589.657 406.569 590.987Z" fill="black"/>
<path fill-rule="evenodd" clip-rule="evenodd" d="M359.041 457.304C360.375 457.416 361.708 457.528 363.041 457.64C361.707 457.528 360.375 457.415 359.041 457.304Z" fill="black"/>
<path fill-rule="evenodd" clip-rule="evenodd" d="M334.103 369.88C333.895 368.273 334.186 367.677 334.973 368.088C335.181 369.598 334.89 370.196 334.103 369.88Z" fill="black"/>
<path fill-rule="evenodd" clip-rule="evenodd" d="M383.564 301.954C383.551 302.955 383.538 303.956 383.525 304.954C383.539 303.952 383.551 302.953 383.564 301.954Z" fill="black"/>
<path fill-rule="evenodd" clip-rule="evenodd" d="M842.608 491.976C842.6 490.975 842.591 489.974 842.584 488.975C842.591 489.977 842.599 490.976 842.608 491.976Z" fill="black"/>
<path fill-rule="evenodd" clip-rule="evenodd" d="M699.08 63.4304C700.413 63.4284 701.747 63.4264 703.08 63.4234C701.745 63.4254 700.413 63.4284 699.08 63.4304Z" fill="black"/>
<path fill-rule="evenodd" clip-rule="evenodd" d="M666.076 185.602L670.076 185.28L666.076 185.602Z" fill="black"/>
<path fill-rule="evenodd" clip-rule="evenodd" d="M603.069 353.476C602.4 353.465 601.73 353.454 601.068 353.444C601.741 353.455 602.405 353.466 603.069 353.476Z" fill="black"/>
<path fill-rule="evenodd" clip-rule="evenodd" d="M626.479 543.982C626.541 542.982 626.601 541.979 626.662 540.981C626.601 541.984 626.54 542.984 626.479 543.982Z" fill="black"/>
<path fill-rule="evenodd" clip-rule="evenodd" d="M472.054 559.445C471.384 559.47 470.715 559.496 470.054 559.521C470.726 559.495 471.39 559.469 472.054 559.445Z" fill="black"/>
<path fill-rule="evenodd" clip-rule="evenodd" d="M383.533 305.955C383.54 306.956 383.547 307.96 383.555 308.955C383.55 307.951 383.541 306.953 383.533 305.955Z" fill="black"/>
<path fill-rule="evenodd" clip-rule="evenodd" d="M323.037 49.4243C322.034 49.4253 321.031 49.4263 320.036 49.4263C321.044 49.4263 322.041 49.4253 323.037 49.4243Z" fill="black"/>
<path fill-rule="evenodd" clip-rule="evenodd" d="M327.792 128.934C329.207 129.853 329.417 130.855 328.42 131.935C326.815 131.809 326.609 130.81 327.792 128.934Z" fill="black"/>
<path fill-rule="evenodd" clip-rule="evenodd" d="M403.046 87.3996C404.379 87.4196 405.714 87.4396 407.046 87.4596C405.713 87.4396 404.378 87.4196 403.046 87.3996Z" fill="black"/>
<path fill-rule="evenodd" clip-rule="evenodd" d="M374.547 103.932C374.544 104.933 374.541 105.934 374.538 106.932C374.541 105.928 374.544 104.931 374.547 103.932Z" fill="black"/>
<path fill-rule="evenodd" clip-rule="evenodd" d="M350.04 105.608L354.04 105.256L350.04 105.608Z" fill="black"/>
<path fill-rule="evenodd" clip-rule="evenodd" d="M530.899 289.358C521.099 290.435 508.638 289.499 499.786 284.73C493.649 281.422 490.805 270.583 499.717 269.059C504.721 268.204 510.725 272.611 515.149 274.314C520.414 276.339 525.909 277.292 531.331 278.711C535.011 279.675 540.357 282.108 536.997 287.368C536.391 288.317 530.968 291.181 530.899 289.358Z" fill="black"/>
<path fill-rule="evenodd" clip-rule="evenodd" d="M669.076 337.566C668.116 343.857 667.972 350.806 664.954 356.555C660.602 364.844 659.744 355.964 660.43 351.411C661.441 344.696 661.989 337.821 661.485 331.034C661.073 325.474 657.331 318.961 660.07 313.955C667.547 318.8 667.7 329.629 669.076 337.566Z" fill="black"/>
<path fill-rule="evenodd" clip-rule="evenodd" d="M669.417 141.912C665.281 140.965 658.514 138.23 664.345 134.373C666.714 132.805 671.381 133.557 674.026 132.089C675.628 131.2 676.536 129.295 678.142 128.605C683.464 126.316 684.009 130.225 682.007 135.196C679.888 140.454 674.8 142.167 669.417 141.912Z" fill="black"/>
<path fill-rule="evenodd" clip-rule="evenodd" d="M667.023 108.811C673.821 103.73 672.897 110.078 669.304 114.55C667.968 116.057 666.63 117.563 665.291 119.067L666.465 120.505C666.263 122.551 668.175 124.064 665.831 125.403C661.963 127.615 659.057 122.387 659.075 119.491C659.102 114.688 663.835 111.675 667.023 108.811Z" fill="black"/>
<path fill-rule="evenodd" clip-rule="evenodd" d="M666.149 109.22C659.803 115.441 660.04 102.916 663.414 100.216C669.887 95.0335 665.717 107.057 666.149 109.22Z" fill="black"/>
<path fill-rule="evenodd" clip-rule="evenodd" d="M678.279 113.926C677.827 111.719 677.769 101.269 682.164 101.964C686.942 102.72 681.68 114.255 678.279 113.926Z" fill="black"/>
<path fill-rule="evenodd" clip-rule="evenodd" d="M670.076 142.394C670.746 142.422 671.416 142.451 672.077 142.478C671.405 142.451 670.74 142.422 670.076 142.394Z" fill="black"/>
<path fill-rule="evenodd" clip-rule="evenodd" d="M365.38 63.9269C359.967 54.7069 372.319 38.9637 378.504 51.7057C379.343 53.4314 381.241 58.0827 378.957 59.5135C376.504 61.0493 377.029 58.8174 375.011 58.4812C372.604 58.0801 373.391 56.9574 370.595 58.177C368.609 59.0432 366.752 62.3366 365.38 63.9269Z" fill="black"/>
</svg>
